<?xml version="1.0" encoding="UTF-8" standalone="no"?>
<!-- Created with Inkscape (http://www.inkscape.org/) -->

<svg
   width="4.0097132mm"
   height="4.1997104mm"
   viewBox="0 0 4.0097132 4.1997104"
   version="1.1"
   id="svg1"
   xml:space="preserve"
   sodipodi:docname="Test.svg"
   inkscape:version="1.4 (86a8ad7, 2024-10-11)"
   inkscape:export-batch-path="C:\Users\Cerpion\Desktop"
   inkscape:export-batch-name=""
   xmlns:inkscape="http://www.inkscape.org/namespaces/inkscape"
   xmlns:sodipodi="http://sodipodi.sourceforge.net/DTD/sodipodi-0.dtd"
   xmlns="http://www.w3.org/2000/svg"
   xmlns:svg="http://www.w3.org/2000/svg"><sodipodi:namedview
     id="namedview1"
     pagecolor="#ffffff"
     bordercolor="#000000"
     borderopacity="0.25"
     inkscape:showpageshadow="2"
     inkscape:pageopacity="0.0"
     inkscape:pagecheckerboard="0"
     inkscape:deskcolor="#d1d1d1"
     inkscape:document-units="mm"
     inkscape:zoom="4.0668163"
     inkscape:cx="-161.67438"
     inkscape:cy="398.46894"
     inkscape:window-width="1920"
     inkscape:window-height="1009"
     inkscape:window-x="-8"
     inkscape:window-y="-8"
     inkscape:window-maximized="1"
     inkscape:current-layer="layer1"
     showguides="false"><inkscape:page
       x="0"
       y="0"
       width="4.0097132"
       height="4.1997104"
       id="page1"
       margin="0"
       bleed="0" /></sodipodi:namedview><defs
     id="defs1"><marker
       style="overflow:visible"
       id="RoundedArrow"
       refX="0"
       refY="0"
       orient="auto-start-reverse"
       inkscape:stockid="Rounded arrow"
       markerWidth="1"
       markerHeight="1"
       viewBox="0 0 1 1"
       inkscape:isstock="true"
       inkscape:collect="always"
       preserveAspectRatio="xMidYMid"><path
         transform="scale(0.7)"
         d="m -0.21114562,-4.1055728 6.42229122,3.21114561 a 1,1 90 0 1 0,1.78885438 L -0.21114562,4.1055728 A 1.236068,1.236068 31.717474 0 1 -2,3 v -6 a 1.236068,1.236068 148.28253 0 1 1.78885438,-1.1055728 z"
         style="fill:context-stroke;fill-rule:evenodd;stroke:none"
         id="path8" /></marker></defs><g
     inkscape:label="Capa 1"
     inkscape:groupmode="layer"
     id="layer1"
     transform="translate(42.449617,-99.974869)"><g
       id="Reinicio"
       transform="rotate(-105,-47.232868,108.95884)"><path
         style="opacity:1;fill:none;stroke:#ffffff;stroke-width:0.224898;stroke-linecap:square;stroke-miterlimit:100;stroke-dasharray:0, 24.9637;stroke-dashoffset:0;stroke-opacity:1;marker-start:url(#RoundedArrow);paint-order:stroke fill markers"
         id="path1"
         sodipodi:type="arc"
         sodipodi:cx="66.651581"
         sodipodi:cy="105.86153"
         sodipodi:rx="1.8441118"
         sodipodi:ry="1.8472503"
         sodipodi:start="0"
         sodipodi:end="5.4977871"
         sodipodi:arc-type="arc"
         d="m 68.495693,105.86153 a 1.8441118,1.8472503 0 0 1 -1.484344,1.81175 1.8441118,1.8472503 0 0 1 -2.063505,-1.10484 1.8441118,1.8472503 0 0 1 0.679203,-2.24285 1.8441118,1.8472503 0 0 1 2.328518,0.22973"
         sodipodi:open="true"
         transform="matrix(0.61839938,0.78586399,-0.79006564,0.61302226,0,0)" /><path
         style="opacity:1;fill:none;stroke:#ffffff;stroke-width:0.330733;stroke-linecap:round;stroke-miterlimit:100;stroke-dasharray:none;stroke-opacity:1;paint-order:stroke fill markers"
         id="path2"
         sodipodi:type="arc"
         sodipodi:cx="66.652863"
         sodipodi:cy="105.86227"
         sodipodi:rx="1.8441118"
         sodipodi:ry="1.8472503"
         sodipodi:start="0"
         sodipodi:end="5.0437838"
         sodipodi:arc-type="arc"
         d="m 68.496974,105.86227 a 1.8441118,1.8472503 0 0 1 -1.281812,1.75928 1.8441118,1.8472503 0 0 1 -2.063503,-0.68642 1.8441118,1.8472503 0 0 1 0.02342,-2.17788 1.8441118,1.8472503 0 0 1 2.077786,-0.64172"
         transform="matrix(0.61839938,0.78586399,-0.79006564,0.61302226,0,0)"
         sodipodi:open="true" /></g></g></svg>
