<?xml version="1.0" encoding="UTF-8" standalone="no"?>
<!-- Created with Inkscape (http://www.inkscape.org/) -->

<svg
   width="67.46875mm"
   height="92.248703mm"
   viewBox="0 0 67.468751 92.248701"
   version="1.1"
   id="svg1"
   xml:space="preserve"
   xmlns="http://www.w3.org/2000/svg"
   xmlns:svg="http://www.w3.org/2000/svg"><defs
     id="defs1"><clipPath
       clipPathUnits="userSpaceOnUse"
       id="clipath_lpe_path-effect1365"><path
         style="display:none;fill:#ffffff;fill-opacity:1;stroke:none;stroke-width:0.79375;stroke-linecap:round;stroke-linejoin:round;stroke-miterlimit:100;stroke-dasharray:none;stroke-opacity:1"
         d="m -3523.5669,1459.1645 c -0.6498,-0.056 -1.216,0.5257 -1.3165,0.9442 -0.1175,0.4894 0.1886,1.2909 0.9506,1.3533 0.694,0.055 1.2401,-0.6058 1.3168,-1.0543 0.079,-0.4595 -0.2415,-1.18 -0.9509,-1.2432 z"
         id="path1371" /><path
         id="lpe_path-effect1365"
         style="fill:#ffffff;fill-opacity:1;stroke:none;stroke-width:0.79375;stroke-linecap:round;stroke-linejoin:round;stroke-miterlimit:100;stroke-dasharray:none;stroke-opacity:1"
         class="powerclip"
         d="m -3540.0253,1448.987 h 26.173 v 18.1865 h -26.173 z m 16.4584,10.1775 c -0.6498,-0.056 -1.216,0.5257 -1.3165,0.9442 -0.1175,0.4894 0.1886,1.2909 0.9506,1.3533 0.694,0.055 1.2401,-0.6058 1.3168,-1.0543 0.079,-0.4595 -0.2415,-1.18 -0.9509,-1.2432 z" /></clipPath><clipPath
       clipPathUnits="userSpaceOnUse"
       id="clipath_lpe_path-effect1367"><path
         style="display:none;fill:#ffffff;fill-opacity:1;stroke:none;stroke-width:0.79375;stroke-linecap:round;stroke-linejoin:round;stroke-miterlimit:100;stroke-dasharray:none;stroke-opacity:1"
         d="m -3523.5669,1459.1645 c -0.6498,-0.056 -1.216,0.5257 -1.3165,0.9442 -0.1175,0.4894 0.1886,1.2909 0.9506,1.3533 0.694,0.055 1.2401,-0.6058 1.3168,-1.0543 0.079,-0.4595 -0.2415,-1.18 -0.9509,-1.2432 z"
         id="path1372" /><path
         id="lpe_path-effect1367"
         style="fill:#ffffff;fill-opacity:1;stroke:none;stroke-width:0.79375;stroke-linecap:round;stroke-linejoin:round;stroke-miterlimit:100;stroke-dasharray:none;stroke-opacity:1"
         class="powerclip"
         d="m -3535.7906,1450.8416 h 20.6777 v 21.5011 h -20.6777 z m 12.2237,8.3229 c -0.6498,-0.056 -1.216,0.5257 -1.3165,0.9442 -0.1175,0.4894 0.1886,1.2909 0.9506,1.3533 0.694,0.055 1.2401,-0.6058 1.3168,-1.0543 0.079,-0.4595 -0.2415,-1.18 -0.9509,-1.2432 z" /></clipPath><clipPath
       clipPathUnits="userSpaceOnUse"
       id="clipath_lpe_path-effect1369"><path
         style="display:none;fill:#ffffff;fill-opacity:1;stroke:none;stroke-width:0.79375;stroke-linecap:round;stroke-linejoin:round;stroke-miterlimit:100;stroke-dasharray:none;stroke-opacity:1"
         d="m -3542.6174,1457.3441 c -0.376,-0.047 -0.7038,0.436 -0.762,0.7831 -0.068,0.4058 0.1093,1.0705 0.5503,1.1223 0.4014,0.046 0.7173,-0.5024 0.762,-0.8744 0.046,-0.381 -0.1399,-0.9785 -0.5503,-1.031 z"
         id="path1373" /><path
         id="lpe_path-effect1369"
         style="fill:#ffffff;fill-opacity:1;stroke:none;stroke-width:0.79375;stroke-linecap:round;stroke-linejoin:round;stroke-miterlimit:100;stroke-dasharray:none;stroke-opacity:1"
         class="powerclip"
         d="m -3552.023,1449.0681 h 16.7836 v 20.8992 h -16.7836 z m 9.4056,8.276 c -0.376,-0.047 -0.7038,0.436 -0.762,0.7831 -0.068,0.4058 0.1093,1.0705 0.5503,1.1223 0.4014,0.046 0.7173,-0.5024 0.762,-0.8744 0.046,-0.381 -0.1399,-0.9785 -0.5503,-1.031 z" /></clipPath><clipPath
       clipPathUnits="userSpaceOnUse"
       id="clipath_lpe_path-effect1371"><path
         style="display:none;fill:#ffffff;fill-opacity:1;stroke:none;stroke-width:0.79375;stroke-linecap:round;stroke-linejoin:round;stroke-miterlimit:100;stroke-dasharray:none;stroke-opacity:1"
         d="m -3542.6174,1457.3441 c -0.376,-0.047 -0.7038,0.436 -0.762,0.7831 -0.068,0.4058 0.1093,1.0705 0.5503,1.1223 0.4014,0.046 0.7173,-0.5024 0.762,-0.8744 0.046,-0.381 -0.1399,-0.9785 -0.5503,-1.031 z"
         id="path1374" /><path
         id="lpe_path-effect1371"
         style="fill:#ffffff;fill-opacity:1;stroke:none;stroke-width:0.79375;stroke-linecap:round;stroke-linejoin:round;stroke-miterlimit:100;stroke-dasharray:none;stroke-opacity:1"
         class="powerclip"
         d="m -3554.005,1447.2748 h 18.9748 v 17.2556 h -18.9748 z m 11.3876,10.0693 c -0.376,-0.047 -0.7038,0.436 -0.762,0.7831 -0.068,0.4058 0.1093,1.0705 0.5503,1.1223 0.4014,0.046 0.7173,-0.5024 0.762,-0.8744 0.046,-0.381 -0.1399,-0.9785 -0.5503,-1.031 z" /></clipPath><clipPath
       clipPathUnits="userSpaceOnUse"
       id="clipath_lpe_path-effect1376"><path
         style="display:none;fill:#ffffff;fill-opacity:1;stroke:none;stroke-width:0.79375;stroke-linecap:round;stroke-linejoin:round;stroke-miterlimit:100;stroke-dasharray:none;stroke-opacity:1"
         d="m -3523.5669,1459.1645 c -0.6498,-0.056 -1.216,0.5257 -1.3165,0.9442 -0.1175,0.4894 0.1886,1.2909 0.9506,1.3533 0.694,0.055 1.2401,-0.6058 1.3168,-1.0543 0.079,-0.4595 -0.2415,-1.18 -0.9509,-1.2432 z"
         id="path1382" /><path
         id="lpe_path-effect1376"
         style="fill:#ffffff;fill-opacity:1;stroke:none;stroke-width:0.79375;stroke-linecap:round;stroke-linejoin:round;stroke-miterlimit:100;stroke-dasharray:none;stroke-opacity:1"
         class="powerclip"
         d="m -3538.7025,1450.3116 h 23.5273 v 15.539 h -23.5273 z m 15.1356,8.8529 c -0.6498,-0.056 -1.216,0.5257 -1.3165,0.9442 -0.1175,0.4894 0.1886,1.2909 0.9506,1.3533 0.694,0.055 1.2401,-0.6058 1.3168,-1.0543 0.079,-0.4595 -0.2415,-1.18 -0.9509,-1.2432 z" /></clipPath><clipPath
       clipPathUnits="userSpaceOnUse"
       id="clipath_lpe_path-effect1378"><path
         style="display:none;fill:#ffffff;fill-opacity:1;stroke:none;stroke-width:0.79375;stroke-linecap:round;stroke-linejoin:round;stroke-miterlimit:100;stroke-dasharray:none;stroke-opacity:1"
         d="m -3523.5669,1459.1645 c -0.6498,-0.056 -1.216,0.5257 -1.3165,0.9442 -0.1175,0.4894 0.1886,1.2909 0.9506,1.3533 0.694,0.055 1.2401,-0.6058 1.3168,-1.0543 0.079,-0.4595 -0.2415,-1.18 -0.9509,-1.2432 z"
         id="path1383" /><path
         id="lpe_path-effect1378"
         style="fill:#ffffff;fill-opacity:1;stroke:none;stroke-width:0.79375;stroke-linecap:round;stroke-linejoin:round;stroke-miterlimit:100;stroke-dasharray:none;stroke-opacity:1"
         class="powerclip"
         d="m -3534.4677,1452.1645 h 18.0319 v 18.8444 h -18.0319 z m 10.9008,7 c -0.6498,-0.056 -1.216,0.5257 -1.3165,0.9442 -0.1175,0.4894 0.1886,1.2909 0.9506,1.3533 0.694,0.055 1.2401,-0.6058 1.3168,-1.0543 0.079,-0.4595 -0.2415,-1.18 -0.9509,-1.2432 z" /></clipPath><clipPath
       clipPathUnits="userSpaceOnUse"
       id="clipath_lpe_path-effect1380"><path
         style="display:none;fill:#ffffff;fill-opacity:1;stroke:none;stroke-width:0.79375;stroke-linecap:round;stroke-linejoin:round;stroke-miterlimit:100;stroke-dasharray:none;stroke-opacity:1"
         d="m -3542.6174,1457.3441 c -0.376,-0.047 -0.7038,0.436 -0.762,0.7831 -0.068,0.4058 0.1093,1.0705 0.5503,1.1223 0.4014,0.046 0.7173,-0.5024 0.762,-0.8744 0.046,-0.381 -0.1399,-0.9785 -0.5503,-1.031 z"
         id="path1384" /><path
         id="lpe_path-effect1380"
         style="fill:#ffffff;fill-opacity:1;stroke:none;stroke-width:0.79375;stroke-linecap:round;stroke-linejoin:round;stroke-miterlimit:100;stroke-dasharray:none;stroke-opacity:1"
         class="powerclip"
         d="m -3550.7001,1450.391 h 14.1378 v 18.2701 h -14.1378 z m 8.0827,6.9531 c -0.376,-0.047 -0.7038,0.436 -0.762,0.7831 -0.068,0.4058 0.1093,1.0705 0.5503,1.1223 0.4014,0.046 0.7173,-0.5024 0.762,-0.8744 0.046,-0.381 -0.1399,-0.9785 -0.5503,-1.031 z" /></clipPath><clipPath
       clipPathUnits="userSpaceOnUse"
       id="clipath_lpe_path-effect1382"><path
         style="display:none;fill:#ffffff;fill-opacity:1;stroke:none;stroke-width:0.79375;stroke-linecap:round;stroke-linejoin:round;stroke-miterlimit:100;stroke-dasharray:none;stroke-opacity:1"
         d="m -3542.6174,1457.3441 c -0.376,-0.047 -0.7038,0.436 -0.762,0.7831 -0.068,0.4058 0.1093,1.0705 0.5503,1.1223 0.4014,0.046 0.7173,-0.5024 0.762,-0.8744 0.046,-0.381 -0.1399,-0.9785 -0.5503,-1.031 z"
         id="path1385" /><path
         id="lpe_path-effect1382"
         style="fill:#ffffff;fill-opacity:1;stroke:none;stroke-width:0.79375;stroke-linecap:round;stroke-linejoin:round;stroke-miterlimit:100;stroke-dasharray:none;stroke-opacity:1"
         class="powerclip"
         d="m -3552.6821,1448.5968 h 16.3291 v 14.611 h -16.3291 z m 10.0647,8.7473 c -0.376,-0.047 -0.7038,0.436 -0.762,0.7831 -0.068,0.4058 0.1093,1.0705 0.5503,1.1223 0.4014,0.046 0.7173,-0.5024 0.762,-0.8744 0.046,-0.381 -0.1399,-0.9785 -0.5503,-1.031 z" /></clipPath></defs><g
     id="layer1"
     transform="translate(4650.8593,-1049.0731)"><g
       id="g1386"><g
         id="g1342"
         transform="translate(-1094.2012,-363.33444)"
         style="fill:#ffffff;fill-opacity:1;stroke:#ffffff;stroke-width:2.64583;stroke-linecap:round;stroke-linejoin:round;stroke-dasharray:none;stroke-opacity:1"><path
           style="fill:#ffffff;fill-opacity:1;stroke:#ffffff;stroke-width:2.64583;stroke-linecap:round;stroke-linejoin:round;stroke-miterlimit:100;stroke-dasharray:none;stroke-opacity:1"
           d="m -3533.7025,1459.7031 c 1.1215,-5.7567 6.3991,-5.2471 13.5273,-1.9474 l -1.4605,3.0949 c -7.3801,-4.6666 -9.9818,-3.2367 -12.0668,-1.1475 z"
           id="path1323"
           clip-path="url(#clipath_lpe_path-effect1365)" /><path
           style="fill:#ffffff;fill-opacity:1;stroke:#ffffff;stroke-width:2.64583;stroke-linecap:round;stroke-linejoin:round;stroke-miterlimit:100;stroke-dasharray:none;stroke-opacity:1"
           d="m -3528.9731,1457.1645 c -0.2745,2.1122 -1.469,7.6693 1.2753,8.677 1.7771,0.1744 4.4265,1.2533 6.262,-5.5038 z"
           id="path1324"
           clip-path="url(#clipath_lpe_path-effect1367)" /><path
           style="fill:#ffffff;fill-opacity:1;stroke:#ffffff;stroke-width:2.64583;stroke-linecap:round;stroke-linejoin:round;stroke-miterlimit:100;stroke-dasharray:none;stroke-opacity:1"
           d="m -3545.6651,1455.391 -0.035,6.0508 c 1.0302,3.742 3.4111,2.1544 4.0688,-0.3825 l 0.069,-3.2689 -1.9124,-2.0517 z"
           id="path1325"
           clip-path="url(#clipath_lpe_path-effect1369)" /><path
           style="fill:#ffffff;fill-opacity:1;stroke:#ffffff;stroke-width:2.64583;stroke-linecap:round;stroke-linejoin:round;stroke-miterlimit:100;stroke-dasharray:none;stroke-opacity:1"
           d="m -3535.3718,1433.9349 c -3.9979,5.1797 -5.1729,12.9469 -7.094,20.0303 -1.4574,-1.7666 -2.6139,-3.6621 -2.7818,-5.9813 -1.447,4.8448 -4.3374,7.8854 -7.2332,10.9193 -5.9976,-18.8489 -2.845,-41.4865 21.4908,-40.1997 -0.5152,-6.0136 8.701,-7.2328 15.1271,0.035 -5.8827,-1.0883 -9.0345,-0.9164 -9.9109,0.5912 18.7591,-0.046 24.761,11.2077 31.126,26.8054 l -1.776,-0.028 5.9116,12.0321 -10.5714,1.1823 c -18.0476,3.7557 -25.8343,-11.4111 -34.2882,-25.386 z"
           id="path1326" /><path
           style="fill:#ffffff;fill-opacity:1;stroke:#ffffff;stroke-width:2.64583;stroke-linecap:round;stroke-linejoin:round;stroke-miterlimit:100;stroke-dasharray:none;stroke-opacity:1"
           d="m -3534.7783,1447.6126 c -0.1163,-0.4426 3.1022,-0.8852 11.508,-1.3278 l 3.367,7.2676 c -2.6779,-0.4453 -1.534,-1.6556 -14.9732,-0.9727 -0.6927,-1.5348 -0.2948,-3.2514 0.098,-4.9671 z"
           id="path1327" /><path
           style="fill:#ffffff;fill-opacity:1;stroke:#ffffff;stroke-width:2.64583;stroke-linecap:round;stroke-linejoin:round;stroke-miterlimit:100;stroke-dasharray:none;stroke-opacity:1"
           d="m -3547.073,1450.2191 3.7375,1.4754 0.6887,-3.4917 -3.8359,-1.2295 z"
           id="path1328" /><path
           style="fill:#ffffff;fill-opacity:1;stroke:#ffffff;stroke-width:2.64583;stroke-linecap:round;stroke-linejoin:round;stroke-miterlimit:100;stroke-dasharray:none;stroke-opacity:1"
           d="m -3542.7944,1465.7105 c -1.0148,0.4558 0.3556,2.1811 1.0815,1.082 -0.5498,-0.2976 -0.7998,-0.6951 -1.0815,-1.082 z"
           id="path1329" /><path
           style="fill:#ffffff;fill-opacity:1;stroke:#ffffff;stroke-width:2.64583;stroke-linecap:round;stroke-linejoin:round;stroke-miterlimit:100;stroke-dasharray:none;stroke-opacity:1"
           d="m -3542.9086,1473.5905 c 1.5122,0.6133 3.1295,0.8341 4.7228,1.135 0.3499,-0.104 0.5476,-0.1961 0.8468,-0.3944"
           id="path1330" /><path
           style="fill:#ffffff;fill-opacity:1;stroke:#ffffff;stroke-width:2.64583;stroke-linecap:round;stroke-linejoin:round;stroke-miterlimit:100;stroke-dasharray:none;stroke-opacity:1"
           d="m -3513.3362,1457.596 c -1.3182,3.1006 -1.4662,6.0842 -1.918,9.0981 0.8727,-0.066 0.524,0.21 3.4917,-0.4426 1.3355,-2.7313 2.3183,-5.7564 3.0983,-8.9506 z"
           id="path1331" /><path
           style="fill:#ffffff;fill-opacity:1;stroke:#ffffff;stroke-width:3.96875;stroke-linecap:round;stroke-linejoin:round;stroke-miterlimit:100;stroke-dasharray:none;stroke-opacity:1;paint-order:stroke fill markers"
           d="m -3548.1341,1452.7829 0.3131,10.3629 c -1.3275,11.8676 4.6697,12.8701 8.485,17.1092 13.8414,-0.8998 14.9858,-2.2834 19.8048,-3.5269 1.6695,-1.7713 3.2894,-3.5673 5.8589,-4.8886 7.8348,2.5599 15.7283,-10.1578 8.3461,-13.2145"
           id="path1332" /><path
           style="fill:#ffffff;fill-opacity:1;stroke:#ffffff;stroke-width:2.64583;stroke-linecap:round;stroke-linejoin:round;stroke-miterlimit:100;stroke-dasharray:none;stroke-opacity:1"
           d="m -3501.2874,1458.8255 c 1.9993,4.6125 3.0322,9.3128 4.0328,14.016 -3.9248,-0.2926 -6.5881,-1.4015 -8.9506,-2.7049 l 2.5572,-2.6556 0.9837,-2.9508 0.2458,-2.6065 -0.7376,-1.9671 -1.3277,-0.8852 z"
           id="path1333" /><path
           style="fill:#ffffff;fill-opacity:1;stroke:#ffffff;stroke-width:2.64583;stroke-linecap:round;stroke-linejoin:round;stroke-miterlimit:100;stroke-dasharray:none;stroke-opacity:1"
           d="m -3508.1231,1471.3169 c -0.6942,3.3119 -1.1408,6.5476 -0.6393,9.4916 -2.124,-0.3751 -4,-1.6803 -5.7541,-3.4426 0,1.292 -0.038,2.6285 -0.4916,4.377 -2.2402,-1.1137 -3.947,-2.894 -5.8524,-4.4261 l 1.516,-0.77 2.3188,-2.2397 3.2471,-2.3508 2.5572,0.3934 z"
           id="path1334" /><path
           style="fill:#ffffff;fill-opacity:1;stroke:#ffffff;stroke-width:2.64583;stroke-linecap:round;stroke-linejoin:round;stroke-miterlimit:100;stroke-dasharray:none;stroke-opacity:1"
           d="m -3532.4505,1479.6986 c 2.8396,0.082 4.6955,-0.2767 8.6786,-1.6208 l 1.2321,-0.3266 0.9041,0.6955 0.07,2.2951 c -2.6594,1.0771 -6.0617,2.0481 -7.8997,3.2425 -1.1001,1.4512 -1.5327,2.8071 -2.2198,4.1993 -0.8949,0.065 -1.5513,0.5807 -2.9906,-0.3825 -0.8001,-4.7752 -1.4551,-5.614 -2.0006,-6.6971 l 1.2008,-1.0924 z"
           id="path1335" /><path
           style="fill:#ffffff;fill-opacity:1;stroke:#ffffff;stroke-width:2.64583;stroke-linecap:round;stroke-linejoin:round;stroke-miterlimit:100;stroke-dasharray:none;stroke-opacity:1"
           d="m -3547.2995,1456.8515 -0.3826,-2.3299 c 3.4807,-2.3266 5.1438,0.045 6.3291,3.6862 -4.5511,-4.0237 -5.0675,-2.438 -5.9465,-1.3563 z"
           id="path1336"
           clip-path="url(#clipath_lpe_path-effect1371)" /><path
           style="fill:#ffffff;fill-opacity:1;stroke:#ffffff;stroke-width:2.64583;stroke-linecap:round;stroke-linejoin:round;stroke-miterlimit:100;stroke-dasharray:none;stroke-opacity:1"
           d="m -3516.6311,1481.9396 c 0.1211,-0.7356 -12.1751,5.9309 -15.344,9.9834 -1.3429,3.9393 -1.7186,6.6211 -2.1637,9.3932 -1.7278,0.075 -3.4229,-0.062 -4.9671,-1.1803 0.5409,-3.2546 1.0818,-6.5528 1.6227,-9.5408 -0.8961,-3.0327 -1.7512,-5.7872 -2.82,-8.8199 l 0.3121,-2.2454 -2.213,-1.7704 c -0.5274,0.1527 -0.7792,-0.053 -1.7214,0.6393 -0.2147,0.4924 -0.1522,0.874 -0.1476,1.2787 l -2.9999,1.3278 c -4.0351,5.5805 -3.817,9.3337 -8.2621,13.8193 1.043,5.5467 6.936,8.0657 10.5735,8.4097 l 30.4826,0.099 1.0412,-1.7219 c 0.5785,0.6215 1.0084,1.055 1.526,1.6842 l 10.1058,-0.01 c 1.5395,-0.9909 3.0628,-2.3416 4.5973,-4.2588 -3.532,-3.4477 -4.7441,-5.9096 -10.0818,-10.2538 -3.4555,-5.7018 -5.1559,-6.0983 -9.5406,-6.8359 z"
           id="path1337" /><path
           style="fill:#ffffff;fill-opacity:1;stroke:#ffffff;stroke-width:2.64583;stroke-linecap:round;stroke-linejoin:round;stroke-miterlimit:100;stroke-dasharray:none;stroke-opacity:1"
           d="m -3538.4666,1492.8435 c 1.83,0.669 3.8462,1.1704 6.3291,1.2519 l -0.1741,1.391 c -2.3825,-0.208 -4.5832,-0.6585 -6.5723,-1.391 z"
           id="path1338" /><path
           style="fill:#ffffff;fill-opacity:1;stroke:#ffffff;stroke-width:2.64583;stroke-linecap:round;stroke-linejoin:round;stroke-miterlimit:100;stroke-dasharray:none;stroke-opacity:1"
           d="m -3539.023,1497.9554 c 1.2736,0.5148 2.8333,1.001 6.0507,1.3214 l -0.313,1.2171 c -2.0578,-0.1064 -4.093,-0.4606 -6.0854,-1.2866 z"
           id="path1339" /><path
           style="fill:#ffffff;fill-opacity:1;stroke:#ffffff;stroke-width:2.64583;stroke-linecap:round;stroke-linejoin:round;stroke-miterlimit:100;stroke-dasharray:none;stroke-opacity:1"
           d="m -3522.385,1478.1036 0.5408,-0.2133 3.5121,0.7303 1.8084,1.8082 -0.313,2.2256"
           id="path1340" /><path
           style="fill:#ffffff;fill-opacity:1;stroke:#ffffff;stroke-width:2.64583;stroke-linecap:round;stroke-linejoin:round;stroke-miterlimit:100;stroke-dasharray:none;stroke-opacity:1"
           d="m -3533.733,1456.6555 c 0.9613,-1.0331 2.3902,-1.5615 3.6372,-2.0232 -2.0303,-1.3018 -4.2786,-0.3639 -3.6372,2.0232 z"
           id="path1341" /><path
           style="fill:#ffffff;fill-opacity:1;stroke:#ffffff;stroke-width:2.64583;stroke-linecap:round;stroke-linejoin:round;stroke-miterlimit:100;stroke-dasharray:none;stroke-opacity:1"
           d="m -3543.2238,1452.9828 c 0.7463,0.9633 1.4211,1.8657 2.0266,2.81 0.4483,-1.7718 0.022,-3.2085 -2.0266,-2.81 z"
           id="path1342" /></g><g
         id="g1364"
         transform="translate(-954.39941,-404.04267)"><path
           style="fill:#ffffff;fill-opacity:1;stroke:none;stroke-width:3.96875;stroke-linecap:round;stroke-linejoin:miter;stroke-miterlimit:100;stroke-dasharray:none;stroke-dashoffset:0;stroke-opacity:1;paint-order:stroke fill markers"
           d="m -3688.0382,1492.4998 0.5615,10.6641 0.093,6.4545 1.7774,5.2385 5.0515,4.6773 -1.4968,5.332 2.0579,17.2121 6.0804,1.029 2.3387,-0.7483 8.6995,-10.2899 6.2674,-8.0448 0.6549,-3.6483 2.1516,-6.6416 3.8354,-1.1225 2.9932,-1.3096 3.6483,-2.2451 2.4321,-3.6482 -2.1513,-7.1094 -11.6933,-10.6641 -9.9155,-11.5059 -10.6641,-6.4546 -10.9447,12.535 z"
           id="path1343" /><g
           id="g1363"
           transform="translate(-139.8018,40.708227)"><path
             style="fill:#1a1a1a;fill-opacity:1;stroke:none;stroke-width:0.465;stroke-linecap:round;stroke-linejoin:round;stroke-miterlimit:100;stroke-dasharray:none;stroke-opacity:1"
             d="m -3533.7025,1459.7031 c 1.1215,-5.7567 6.3991,-5.2471 13.5273,-1.9474 l -1.4605,3.0949 c -7.3801,-4.6666 -9.9818,-3.2367 -12.0668,-1.1475 z"
             id="path1344"
             clip-path="url(#clipath_lpe_path-effect1376)" /><path
             style="fill:#1a1a1a;fill-opacity:1;stroke:none;stroke-width:0.465;stroke-linecap:round;stroke-linejoin:round;stroke-miterlimit:100;stroke-dasharray:none;stroke-opacity:1"
             d="m -3528.9731,1457.1645 c -0.2745,2.1122 -1.469,7.6693 1.2753,8.677 1.7771,0.1744 4.4265,1.2533 6.262,-5.5038 z"
             id="path1345"
             clip-path="url(#clipath_lpe_path-effect1378)" /><path
             style="fill:#1a1a1a;fill-opacity:1;stroke:none;stroke-width:0.465;stroke-linecap:round;stroke-linejoin:round;stroke-miterlimit:100;stroke-dasharray:none;stroke-opacity:1"
             d="m -3545.6651,1455.391 -0.035,6.0508 c 1.0302,3.742 3.4111,2.1544 4.0688,-0.3825 l 0.069,-3.2689 -1.9124,-2.0517 z"
             id="path1346"
             clip-path="url(#clipath_lpe_path-effect1380)" /><path
             style="fill:#1a1a1a;fill-opacity:1;stroke:none;stroke-width:0.264583;stroke-linecap:round;stroke-linejoin:round;stroke-miterlimit:100"
             d="m -3535.3718,1433.9349 c -3.9979,5.1797 -5.1729,12.9469 -7.094,20.0303 -1.4574,-1.7666 -2.6139,-3.6621 -2.7818,-5.9813 -1.447,4.8448 -4.3374,7.8854 -7.2332,10.9193 -5.9976,-18.8489 -2.845,-41.4865 21.4908,-40.1997 -0.5152,-6.0136 8.701,-7.2328 15.1271,0.035 -5.8827,-1.0883 -9.0345,-0.9164 -9.9109,0.5912 18.7591,-0.046 24.761,11.2077 31.126,26.8054 l -1.776,-0.028 5.9116,12.0321 -10.5714,1.1823 c -18.0476,3.7557 -25.8343,-11.4111 -34.2882,-25.386 z"
             id="path1347" /><path
             style="fill:#1a1a1a;fill-opacity:1;stroke:none;stroke-width:0.264583;stroke-linecap:round;stroke-linejoin:round;stroke-miterlimit:100"
             d="m -3534.7783,1447.6126 c -0.1163,-0.4426 3.1022,-0.8852 11.508,-1.3278 l 3.367,7.2676 c -2.6779,-0.4453 -1.534,-1.6556 -14.9732,-0.9727 -0.6927,-1.5348 -0.2948,-3.2514 0.098,-4.9671 z"
             id="path1348" /><path
             style="fill:#1a1a1a;fill-opacity:1;stroke:none;stroke-width:0.264583;stroke-linecap:round;stroke-linejoin:round;stroke-miterlimit:100"
             d="m -3547.073,1450.2191 3.7375,1.4754 0.6887,-3.4917 -3.8359,-1.2295 z"
             id="path1349" /><path
             style="fill:#1a1a1a;fill-opacity:1;stroke:#1a1a1a;stroke-width:0.264583;stroke-linecap:round;stroke-linejoin:round;stroke-miterlimit:100;stroke-dasharray:none;stroke-opacity:1"
             d="m -3542.7944,1465.7105 c -1.0148,0.4558 0.3556,2.1811 1.0815,1.082 -0.5498,-0.2976 -0.7998,-0.6951 -1.0815,-1.082 z"
             id="path1350" /><path
             style="fill:none;stroke:#1a1a1a;stroke-width:0.79375;stroke-linecap:round;stroke-linejoin:round;stroke-miterlimit:100;stroke-dasharray:none;stroke-opacity:1"
             d="m -3542.9086,1473.5905 c 1.5122,0.6133 3.1295,0.8341 4.7228,1.135 0.3499,-0.104 0.5476,-0.1961 0.8468,-0.3944"
             id="path1351" /><path
             style="fill:#1a1a1a;fill-opacity:1;stroke:none;stroke-width:0.465;stroke-linecap:round;stroke-linejoin:round;stroke-miterlimit:100;stroke-dasharray:none;stroke-opacity:1"
             d="m -3513.3362,1457.596 c -1.3182,3.1006 -1.4662,6.0842 -1.918,9.0981 0.8727,-0.066 0.524,0.21 3.4917,-0.4426 1.3355,-2.7313 2.3183,-5.7564 3.0983,-8.9506 z"
             id="path1352" /><path
             style="fill:none;fill-opacity:1;stroke:#1a1a1a;stroke-width:1.32292;stroke-linecap:round;stroke-linejoin:round;stroke-miterlimit:100;stroke-dasharray:none;stroke-opacity:1;paint-order:stroke fill markers"
             d="m -3548.1341,1452.7829 0.3131,10.3629 c -1.3275,11.8676 4.6697,12.8701 8.485,17.1092 13.8414,-0.8998 14.9858,-2.2834 19.8048,-3.5269 1.6695,-1.7713 3.2894,-3.5673 5.8589,-4.8886 7.8348,2.5599 15.7283,-10.1578 8.3461,-13.2145"
             id="path1353" /><path
             style="fill:#1a1a1a;fill-opacity:1;stroke:none;stroke-width:0.465;stroke-linecap:round;stroke-linejoin:round;stroke-miterlimit:100;stroke-dasharray:none;stroke-opacity:1"
             d="m -3501.2874,1458.8255 c 1.9993,4.6125 3.0322,9.3128 4.0328,14.016 -3.9248,-0.2926 -6.5881,-1.4015 -8.9506,-2.7049 l 2.5572,-2.6556 0.9837,-2.9508 0.2458,-2.6065 -0.7376,-1.9671 -1.3277,-0.8852 z"
             id="path1354" /><path
             style="fill:#1a1a1a;fill-opacity:1;stroke:none;stroke-width:0.465;stroke-linecap:round;stroke-linejoin:round;stroke-miterlimit:100;stroke-dasharray:none;stroke-opacity:1"
             d="m -3508.1231,1471.3169 c -0.6942,3.3119 -1.1408,6.5476 -0.6393,9.4916 -2.124,-0.3751 -4,-1.6803 -5.7541,-3.4426 0,1.292 -0.038,2.6285 -0.4916,4.377 -2.2402,-1.1137 -3.947,-2.894 -5.8524,-4.4261 l 1.516,-0.77 2.3188,-2.2397 3.2471,-2.3508 2.5572,0.3934 z"
             id="path1355" /><path
             style="fill:#1a1a1a;fill-opacity:1;stroke:none;stroke-width:0.465;stroke-linecap:round;stroke-linejoin:round;stroke-miterlimit:100;stroke-dasharray:none;stroke-opacity:1"
             d="m -3532.4505,1479.6986 c 2.8396,0.082 4.6955,-0.2767 8.6786,-1.6208 l 1.2321,-0.3266 0.9041,0.6955 0.07,2.2951 c -2.6594,1.0771 -6.0617,2.0481 -7.8997,3.2425 -1.1001,1.4512 -1.5327,2.8071 -2.2198,4.1993 -0.8949,0.065 -1.5513,0.5807 -2.9906,-0.3825 -0.8001,-4.7752 -1.4551,-5.614 -2.0006,-6.6971 l 1.2008,-1.0924 z"
             id="path1356" /><path
             style="fill:#1a1a1a;fill-opacity:1;stroke:none;stroke-width:0.465;stroke-linecap:round;stroke-linejoin:round;stroke-miterlimit:100;stroke-dasharray:none;stroke-opacity:1"
             d="m -3547.2995,1456.8515 -0.3826,-2.3299 c 3.4807,-2.3266 5.1438,0.045 6.3291,3.6862 -4.5511,-4.0237 -5.0675,-2.438 -5.9465,-1.3563 z"
             id="path1357"
             clip-path="url(#clipath_lpe_path-effect1382)" /><path
             style="fill:#1a1a1a;fill-opacity:1;stroke:none;stroke-width:0.465;stroke-linecap:round;stroke-linejoin:round;stroke-miterlimit:100;stroke-dasharray:none;stroke-opacity:1"
             d="m -3516.6311,1481.9396 c 0.1211,-0.7356 -12.1751,5.9309 -15.344,9.9834 -1.3429,3.9393 -1.7186,6.6211 -2.1637,9.3932 -1.7278,0.075 -3.4229,-0.062 -4.9671,-1.1803 0.5409,-3.2546 1.0818,-6.5528 1.6227,-9.5408 -0.8961,-3.0327 -1.7512,-5.7872 -2.82,-8.8199 l 0.3121,-2.2454 -2.213,-1.7704 c -0.5274,0.1527 -0.7792,-0.053 -1.7214,0.6393 -0.2147,0.4924 -0.1522,0.874 -0.1476,1.2787 l -2.9999,1.3278 c -4.0351,5.5805 -3.817,9.3337 -8.2621,13.8193 1.043,5.5467 6.936,8.0657 10.5735,8.4097 l 30.4826,0.099 1.0412,-1.7219 c 0.5785,0.6215 1.0084,1.055 1.526,1.6842 l 10.1058,-0.01 c 1.5395,-0.9909 3.0628,-2.3416 4.5973,-4.2588 -3.532,-3.4477 -4.7441,-5.9096 -10.0818,-10.2538 -3.4555,-5.7018 -5.1559,-6.0983 -9.5406,-6.8359 z"
             id="path1358" /><path
             style="fill:#1a1a1a;fill-opacity:1;stroke:none;stroke-width:0.465;stroke-linecap:round;stroke-linejoin:round;stroke-miterlimit:100;stroke-dasharray:none;stroke-opacity:1"
             d="m -3538.4666,1492.8435 c 1.83,0.669 3.8462,1.1704 6.3291,1.2519 l -0.1741,1.391 c -2.3825,-0.208 -4.5832,-0.6585 -6.5723,-1.391 z"
             id="path1359" /><path
             style="fill:#1a1a1a;fill-opacity:1;stroke:none;stroke-width:0.465;stroke-linecap:round;stroke-linejoin:round;stroke-miterlimit:100;stroke-dasharray:none;stroke-opacity:1"
             d="m -3539.023,1497.9554 c 1.2736,0.5148 2.8333,1.001 6.0507,1.3214 l -0.313,1.2171 c -2.0578,-0.1064 -4.093,-0.4606 -6.0854,-1.2866 z"
             id="path1360" /><path
             style="fill:none;fill-opacity:1;stroke:#1a1a1a;stroke-width:1.05833;stroke-linecap:round;stroke-linejoin:round;stroke-miterlimit:100;stroke-dasharray:none;stroke-opacity:1"
             d="m -3522.385,1478.1036 0.5408,-0.2133 3.5121,0.7303 1.8084,1.8082 -0.313,2.2256"
             id="path1361" /><path
             style="fill:#1a1a1a;fill-opacity:1;stroke:none;stroke-width:0.79375;stroke-linecap:round;stroke-linejoin:round;stroke-miterlimit:100;stroke-dasharray:none;stroke-opacity:1"
             d="m -3533.733,1456.6555 c 0.9613,-1.0331 2.3902,-1.5615 3.6372,-2.0232 -2.0303,-1.3018 -4.2786,-0.3639 -3.6372,2.0232 z"
             id="path1362" /><path
             style="fill:#1a1a1a;fill-opacity:1;stroke:none;stroke-width:0.79375;stroke-linecap:round;stroke-linejoin:round;stroke-miterlimit:100;stroke-dasharray:none;stroke-opacity:1"
             d="m -3543.2238,1452.9828 c 0.7463,0.9633 1.4211,1.8657 2.0266,2.81 0.4483,-1.7718 0.022,-3.2085 -2.0266,-2.81 z"
             id="path1363" /></g></g></g></g></svg>
